<mxfile host="65bd71144e" modified="2021-01-07T09:34:48.281Z" agent="5.0 (X11; Linux x86_64) AppleWebKit/537.36 (KHTML, like Gecko) Code/1.52.1 Chrome/83.0.4103.122 Electron/9.3.5 Safari/537.36" etag="Uht25fWGHsipLtUM4rOt" version="13.10.0" type="embed">
    <diagram id="tXNvYlcW8-W0-e2RewHa" name="Page-1">
        <mxGraphModel dx="1107" dy="566" grid="1" gridSize="10" guides="1" tooltips="1" connect="1" arrows="1" fold="1" page="1" pageScale="1" pageWidth="827" pageHeight="1169" math="0" shadow="0">
            <root>
                <mxCell id="0"/>
                <mxCell id="1" parent="0"/>
                <mxCell id="5" value="" style="rounded=0;whiteSpace=wrap;html=1;fillColor=#f5f5dc;" parent="1" vertex="1">
                    <mxGeometry x="129" y="320" width="421" height="380" as="geometry"/>
                </mxCell>
                <mxCell id="3" value="docker" style="rounded=0;whiteSpace=wrap;html=1;fillColor=#647687;strokeColor=#314354;fontColor=#ffffff;" parent="1" vertex="1">
                    <mxGeometry x="129" y="780" width="541" height="60" as="geometry"/>
                </mxCell>
                <mxCell id="6" value="web界面" style="rounded=0;whiteSpace=wrap;html=1;fillColor=#6d8764;strokeColor=#3A5431;fontColor=#ffffff;" parent="1" vertex="1">
                    <mxGeometry x="129" y="250" width="541" height="60" as="geometry"/>
                </mxCell>
                <mxCell id="10" value="&lt;b&gt;&lt;font style=&quot;font-size: 16px&quot;&gt;WEB&lt;/font&gt;&lt;/b&gt;" style="text;html=1;strokeColor=none;fillColor=none;align=center;verticalAlign=middle;whiteSpace=wrap;rounded=0;" parent="1" vertex="1">
                    <mxGeometry x="70" y="270" width="40" height="20" as="geometry"/>
                </mxCell>
                <mxCell id="11" value="&lt;b&gt;&lt;font style=&quot;font-size: 16px&quot;&gt;服务层&lt;/font&gt;&lt;/b&gt;" style="text;html=1;strokeColor=none;fillColor=none;align=center;verticalAlign=middle;whiteSpace=wrap;rounded=0;" parent="1" vertex="1">
                    <mxGeometry x="65" y="460" width="50" height="20" as="geometry"/>
                </mxCell>
                <mxCell id="12" value="&lt;span style=&quot;font-size: 16px&quot;&gt;&lt;b&gt;中间件&lt;/b&gt;&lt;/span&gt;" style="text;html=1;strokeColor=none;fillColor=none;align=center;verticalAlign=middle;whiteSpace=wrap;rounded=0;" parent="1" vertex="1">
                    <mxGeometry x="55" y="730" width="70" height="20" as="geometry"/>
                </mxCell>
                <mxCell id="13" value="&lt;font style=&quot;font-size: 16px&quot;&gt;&lt;b&gt;支撑层&lt;/b&gt;&lt;/font&gt;" style="text;html=1;strokeColor=none;fillColor=none;align=center;verticalAlign=middle;whiteSpace=wrap;rounded=0;" parent="1" vertex="1">
                    <mxGeometry x="65" y="800" width="50" height="20" as="geometry"/>
                </mxCell>
                <mxCell id="22" value="" style="group;strokeColor=#36393d;fillColor=#9999FF;" parent="1" vertex="1" connectable="0">
                    <mxGeometry x="140" y="340" width="125" height="170" as="geometry"/>
                </mxCell>
                <mxCell id="15" value="用户服务" style="outlineConnect=0;html=1;whiteSpace=wrap;fontSize=12;fontStyle=0;strokeColor=#006EAF;verticalAlign=top;align=center;dashed=1;spacingTop=3;fontColor=#ffffff;fillColor=#1ba1e2;" parent="22" vertex="1">
                    <mxGeometry width="125" height="170" as="geometry"/>
                </mxCell>
                <mxCell id="18" value="token校验" style="rounded=0;whiteSpace=wrap;html=1;" parent="22" vertex="1">
                    <mxGeometry x="11.363636363636362" y="37.1875" width="102.27272727272725" height="26.5625" as="geometry"/>
                </mxCell>
                <mxCell id="19" value="用户管理" style="rounded=0;whiteSpace=wrap;html=1;" parent="22" vertex="1">
                    <mxGeometry x="11.363636363636362" y="74.375" width="102.27272727272725" height="26.5625" as="geometry"/>
                </mxCell>
                <mxCell id="21" value="平台帐号管理" style="rounded=0;whiteSpace=wrap;html=1;" parent="22" vertex="1">
                    <mxGeometry x="11.363636363636362" y="116.875" width="102.27272727272725" height="26.5625" as="geometry"/>
                </mxCell>
                <mxCell id="33" value="" style="group;strokeColor=#006EAF;fillColor=#1ba1e2;dashed=1;fontColor=#ffffff;fontStyle=0;spacingTop=3;" parent="1" vertex="1" connectable="0">
                    <mxGeometry x="274.5" y="340" width="125" height="170" as="geometry"/>
                </mxCell>
                <mxCell id="17" value="&lt;font color=&quot;#ffffff&quot;&gt;商品服务&lt;/font&gt;" style="outlineConnect=0;gradientColor=none;html=1;whiteSpace=wrap;fontSize=12;fontStyle=0;strokeColor=#858B94;fillColor=none;verticalAlign=top;align=center;fontColor=#858B94;dashed=1;spacingTop=3;" parent="33" vertex="1">
                    <mxGeometry width="120.1923076923077" height="170" as="geometry"/>
                </mxCell>
                <mxCell id="29" value="选品" style="rounded=0;whiteSpace=wrap;html=1;" parent="33" vertex="1">
                    <mxGeometry x="11.363636363636363" y="37.1875" width="102.27272727272728" height="26.5625" as="geometry"/>
                </mxCell>
                <mxCell id="30" value="产品克隆" style="rounded=0;whiteSpace=wrap;html=1;" parent="33" vertex="1">
                    <mxGeometry x="11.363636363636363" y="74.375" width="102.27272727272728" height="26.5625" as="geometry"/>
                </mxCell>
                <mxCell id="31" value="商品自动上架" style="rounded=0;whiteSpace=wrap;html=1;" parent="33" vertex="1">
                    <mxGeometry x="11.363636363636363" y="116.875" width="102.27272727272728" height="26.5625" as="geometry"/>
                </mxCell>
                <mxCell id="34" value="" style="group;strokeColor=#36393d;fillColor=#9999FF;" parent="1" vertex="1" connectable="0">
                    <mxGeometry x="414" y="340" width="125" height="170" as="geometry"/>
                </mxCell>
                <mxCell id="44" value="" style="group;dashed=1;fontColor=#ffffff;fontStyle=0;strokeColor=#006EAF;fillColor=#1ba1e2;spacingTop=3;" parent="34" vertex="1" connectable="0">
                    <mxGeometry width="125.00000000000001" height="170" as="geometry"/>
                </mxCell>
                <mxCell id="35" value="&lt;font color=&quot;#ffffff&quot;&gt;物流服务&lt;/font&gt;" style="outlineConnect=0;gradientColor=none;html=1;whiteSpace=wrap;fontSize=12;fontStyle=0;strokeColor=#858B94;verticalAlign=top;align=center;fontColor=#858B94;dashed=1;spacingTop=3;fillColor=none;" parent="44" vertex="1">
                    <mxGeometry width="125.00000000000001" height="170" as="geometry"/>
                </mxCell>
                <mxCell id="36" value="多物流接入" style="rounded=0;whiteSpace=wrap;html=1;" parent="44" vertex="1">
                    <mxGeometry x="11.363636363636365" y="37.1875" width="102.27272727272728" height="26.5625" as="geometry"/>
                </mxCell>
                <mxCell id="46" value="" style="group;fillColor=#9999FF;strokeColor=#36393d;fontColor=#f0f0f0;" parent="1" vertex="1" connectable="0">
                    <mxGeometry x="140" y="520" width="125" height="170" as="geometry"/>
                </mxCell>
                <mxCell id="47" value="" style="group;dashed=1;fontColor=#ffffff;fontStyle=0;strokeColor=#006EAF;fillColor=#1ba1e2;spacingTop=3;" parent="46" vertex="1" connectable="0">
                    <mxGeometry width="125.00000000000001" height="169.99999999999997" as="geometry"/>
                </mxCell>
                <mxCell id="48" value="&lt;font color=&quot;#ffffff&quot;&gt;消息服务&lt;/font&gt;" style="outlineConnect=0;gradientColor=none;html=1;whiteSpace=wrap;fontSize=12;fontStyle=0;strokeColor=#858B94;fillColor=none;verticalAlign=top;align=center;fontColor=#858B94;dashed=1;spacingTop=3;" parent="47" vertex="1">
                    <mxGeometry width="125.00000000000001" height="169.99999999999997" as="geometry"/>
                </mxCell>
                <mxCell id="49" value="微信通知" style="rounded=0;whiteSpace=wrap;html=1;" parent="47" vertex="1">
                    <mxGeometry x="11.363636363636365" y="37.18749999999999" width="102.27272727272728" height="26.562499999999996" as="geometry"/>
                </mxCell>
                <mxCell id="52" value="邮件通知" style="rounded=0;whiteSpace=wrap;html=1;" parent="47" vertex="1">
                    <mxGeometry x="11.363636363636365" y="79.68749999999999" width="102.27272727272728" height="26.562499999999996" as="geometry"/>
                </mxCell>
                <mxCell id="53" value="" style="group;strokeColor=#36393d;fillColor=#9999FF;" parent="1" vertex="1" connectable="0">
                    <mxGeometry x="274.5" y="520" width="125" height="170" as="geometry"/>
                </mxCell>
                <mxCell id="54" value="" style="group;dashed=1;fontColor=#ffffff;fontStyle=0;strokeColor=#006EAF;fillColor=#1ba1e2;spacingTop=3;" parent="53" vertex="1" connectable="0">
                    <mxGeometry width="125.00000000000001" height="170" as="geometry"/>
                </mxCell>
                <mxCell id="63" value="" style="group" parent="54" vertex="1" connectable="0">
                    <mxGeometry width="125.00000000000001" height="170" as="geometry"/>
                </mxCell>
                <mxCell id="55" value="&lt;font color=&quot;#ffffff&quot;&gt;爬虫服务&lt;/font&gt;" style="outlineConnect=0;gradientColor=none;html=1;whiteSpace=wrap;fontSize=12;fontStyle=0;strokeColor=#858B94;fillColor=none;verticalAlign=top;align=center;fontColor=#858B94;dashed=1;spacingTop=3;" parent="63" vertex="1">
                    <mxGeometry width="125.00000000000001" height="170" as="geometry"/>
                </mxCell>
                <mxCell id="56" value="商品爬取" style="rounded=0;whiteSpace=wrap;html=1;" parent="63" vertex="1">
                    <mxGeometry x="11.363636363636365" y="37.1875" width="102.27272727272728" height="26.5625" as="geometry"/>
                </mxCell>
                <mxCell id="57" value="订单爬取" style="rounded=0;whiteSpace=wrap;html=1;" parent="63" vertex="1">
                    <mxGeometry x="11.363636363636365" y="79.6875" width="102.27272727272728" height="26.5625" as="geometry"/>
                </mxCell>
                <mxCell id="58" value="" style="group;strokeColor=#006EAF;fillColor=#1ba1e2;dashed=1;fontColor=#ffffff;fontStyle=0;spacingTop=3;" parent="1" vertex="1" connectable="0">
                    <mxGeometry x="414" y="520" width="125" height="170" as="geometry"/>
                </mxCell>
                <mxCell id="59" value="" style="group" parent="58" vertex="1" connectable="0">
                    <mxGeometry width="125.00000000000001" height="170" as="geometry"/>
                </mxCell>
                <mxCell id="60" value="&lt;font color=&quot;#ffffff&quot;&gt;订单服务&lt;/font&gt;" style="outlineConnect=0;gradientColor=none;html=1;whiteSpace=wrap;fontSize=12;fontStyle=0;strokeColor=#858B94;fillColor=none;verticalAlign=top;align=center;fontColor=#858B94;dashed=1;spacingTop=3;" parent="59" vertex="1">
                    <mxGeometry width="125.00000000000001" height="170" as="geometry"/>
                </mxCell>
                <mxCell id="61" value="新订单实时通知" style="rounded=0;whiteSpace=wrap;html=1;" parent="59" vertex="1">
                    <mxGeometry x="11.363636363636365" y="37.1875" width="102.27272727272728" height="26.5625" as="geometry"/>
                </mxCell>
                <mxCell id="77" value="" style="group" parent="1" vertex="1" connectable="0">
                    <mxGeometry x="560" y="320" width="110" height="130" as="geometry"/>
                </mxCell>
                <mxCell id="73" value="第三方物流api" style="outlineConnect=0;html=1;whiteSpace=wrap;fontSize=12;fontStyle=0;strokeColor=#314354;fillColor=#647687;verticalAlign=top;align=center;fontColor=#ffffff;dashed=0;spacingTop=3;" parent="77" vertex="1">
                    <mxGeometry width="110" height="130" as="geometry"/>
                </mxCell>
                <mxCell id="66" value="燕文" style="rounded=0;whiteSpace=wrap;html=1;" parent="77" vertex="1">
                    <mxGeometry x="10" y="37.142857142857146" width="90" height="23.214285714285715" as="geometry"/>
                </mxCell>
                <mxCell id="67" value="4px" style="rounded=0;whiteSpace=wrap;html=1;" parent="77" vertex="1">
                    <mxGeometry x="10" y="65" width="90" height="23.214285714285715" as="geometry"/>
                </mxCell>
                <mxCell id="68" value="邮政E邮宝" style="rounded=0;whiteSpace=wrap;html=1;" parent="77" vertex="1">
                    <mxGeometry x="10" y="92.85714285714286" width="90" height="23.214285714285715" as="geometry"/>
                </mxCell>
                <mxCell id="82" value="" style="group" parent="1" vertex="1" connectable="0">
                    <mxGeometry x="560" y="460" width="110" height="130" as="geometry"/>
                </mxCell>
                <mxCell id="76" value="国内电商平台" style="outlineConnect=0;html=1;whiteSpace=wrap;fontSize=12;fontStyle=0;strokeColor=#314354;fillColor=#647687;verticalAlign=top;align=center;fontColor=#ffffff;dashed=0;spacingTop=3;" parent="82" vertex="1">
                    <mxGeometry width="110" height="130" as="geometry"/>
                </mxCell>
                <mxCell id="78" value="1688" style="rounded=0;whiteSpace=wrap;html=1;" parent="82" vertex="1">
                    <mxGeometry x="10" y="37.142857142857146" width="90" height="23.214285714285715" as="geometry"/>
                </mxCell>
                <mxCell id="79" value="拼多多" style="rounded=0;whiteSpace=wrap;html=1;" parent="82" vertex="1">
                    <mxGeometry x="10" y="65" width="90" height="23.214285714285715" as="geometry"/>
                </mxCell>
                <mxCell id="81" value="淘宝" style="rounded=0;whiteSpace=wrap;html=1;" parent="82" vertex="1">
                    <mxGeometry x="10" y="94.71428571428572" width="90" height="23.214285714285715" as="geometry"/>
                </mxCell>
                <mxCell id="88" value="" style="group" parent="1" vertex="1" connectable="0">
                    <mxGeometry x="560" y="605" width="110" height="95" as="geometry"/>
                </mxCell>
                <mxCell id="84" value="跨境电商平台" style="outlineConnect=0;html=1;whiteSpace=wrap;fontSize=12;fontStyle=0;strokeColor=#314354;fillColor=#647687;verticalAlign=top;align=center;fontColor=#ffffff;dashed=0;spacingTop=3;" parent="88" vertex="1">
                    <mxGeometry width="110" height="95" as="geometry"/>
                </mxCell>
                <mxCell id="85" value="vova" style="rounded=0;whiteSpace=wrap;html=1;" parent="88" vertex="1">
                    <mxGeometry x="10" y="34.54545454545455" width="90" height="21.59090909090909" as="geometry"/>
                </mxCell>
                <mxCell id="86" value="aliexpress" style="rounded=0;whiteSpace=wrap;html=1;" parent="88" vertex="1">
                    <mxGeometry x="10" y="60.45454545454545" width="90" height="21.59090909090909" as="geometry"/>
                </mxCell>
                <mxCell id="90" value="" style="group" vertex="1" connectable="0" parent="1">
                    <mxGeometry x="129" y="710" width="541" height="60" as="geometry"/>
                </mxCell>
                <mxCell id="4" value="" style="rounded=0;whiteSpace=wrap;html=1;fillColor=#76608a;strokeColor=#432D57;fontColor=#ffffff;" parent="90" vertex="1">
                    <mxGeometry width="541" height="60" as="geometry"/>
                </mxCell>
                <mxCell id="14" value="springcloud" style="rounded=0;whiteSpace=wrap;html=1;" parent="90" vertex="1">
                    <mxGeometry x="11" y="10" width="90" height="40" as="geometry"/>
                </mxCell>
                <mxCell id="23" value="mysql" style="rounded=0;whiteSpace=wrap;html=1;" parent="90" vertex="1">
                    <mxGeometry x="121" y="10" width="90" height="40" as="geometry"/>
                </mxCell>
            </root>
        </mxGraphModel>
    </diagram>
</mxfile>